<?xml version="1.0" encoding="UTF-8" standalone="no"?>
<svg
   xmlns:dc="http://purl.org/dc/elements/1.1/"
   xmlns:cc="http://creativecommons.org/ns#"
   xmlns:rdf="http://www.w3.org/1999/02/22-rdf-syntax-ns#"
   xmlns:svg="http://www.w3.org/2000/svg"
   xmlns="http://www.w3.org/2000/svg"
   xmlns:sodipodi="http://sodipodi.sourceforge.net/DTD/sodipodi-0.dtd"
   xmlns:inkscape="http://www.inkscape.org/namespaces/inkscape"
   inkscape:version="1.0.1 (3bc2e813f5, 2020-09-07)"
   inkscape:export-ydpi="96"
   inkscape:export-xdpi="96"
   inkscape:export-filename="C:\Users\Richie\bitmapPage.png"
   id="svg8"
   version="1.1"
   viewBox="0 0 507.99999 285.75001"
   height="1080"
   width="1920"
   sodipodi:docname="banner.svg">
  <style
     id="style2563"></style>
  <defs
     id="defs2" />
  <sodipodi:namedview
     inkscape:pagecheckerboard="false"
     showborder="true"
     borderlayer="false"
     inkscape:showpageshadow="false"
     showgrid="true"
     inkscape:document-rotation="0"
     inkscape:current-layer="layer1"
     inkscape:document-units="px"
     inkscape:cy="452.70637"
     inkscape:cx="1335.3587"
     inkscape:zoom="0.35231482"
     inkscape:pageshadow="2"
     inkscape:pageopacity="0"
     borderopacity="1.0"
     bordercolor="#666666"
     pagecolor="#ffffff"
     id="base"
     units="px"
     inkscape:window-width="1920"
     inkscape:window-height="1017"
     inkscape:window-x="-8"
     inkscape:window-y="-8"
     inkscape:window-maximized="1" />
  <metadata
     id="metadata5">
    <rdf:RDF>
      <cc:Work
         rdf:about="">
        <dc:format>image/svg+xml</dc:format>
        <dc:type
           rdf:resource="http://purl.org/dc/dcmitype/StillImage" />
        <dc:title></dc:title>
        <cc:license
           rdf:resource="" />
      </cc:Work>
    </rdf:RDF>
  </metadata>
  <g
     id="layer1"
     inkscape:groupmode="layer"
     inkscape:label="Layer 1">
    <g
       id="g2761"
       transform="translate(4.1304207)">
      <g
         id="g1365"
         transform="translate(13.645399,-4.4156756)">
        <path
           id="path1113-8"
           style="fill:#ffdca5;fill-opacity:1;stroke-width:2.50259;stroke-linecap:round;stroke-linejoin:round;stroke-dasharray:5.00518, 2.50259;stroke-dashoffset:2.50259;paint-order:stroke fill markers"
           d="m 79.116656,66.203047 a 61.956306,61.956306 0 0 0 25.750884,22.92935 68.446631,68.446631 0 0 1 11.87628,-13.21935 61.956306,61.956306 0 0 1 -0.27854,0.0176 61.956306,61.956306 0 0 1 -0.33951,0.0202 61.956306,61.956306 0 0 1 -0.34003,0.0186 61.956306,61.956306 0 0 1 -0.34003,0.0165 61.956306,61.956306 0 0 1 -0.34003,0.014 61.956306,61.956306 0 0 1 -0.34055,0.0134 61.956306,61.956306 0 0 1 -0.34055,0.0103 61.956306,61.956306 0 0 1 -0.34003,0.009 61.956306,61.956306 0 0 1 -0.34055,0.007 61.956306,61.956306 0 0 1 -0.34003,0.005 61.956306,61.956306 0 0 1 -0.34055,0.003 61.956306,61.956306 0 0 1 -0.34054,0.002 61.956306,61.956306 0 0 1 -0.34055,-5.1e-4 61.956306,61.956306 0 0 1 -0.34055,-0.002 61.956306,61.956306 0 0 1 -0.34003,-0.004 61.956306,61.956306 0 0 1 -0.34055,-0.006 61.956306,61.956306 0 0 1 -0.34055,-0.008 61.956306,61.956306 0 0 1 -0.34055,-0.009 61.956306,61.956306 0 0 1 -0.34002,-0.0114 61.956306,61.956306 0 0 1 -0.34004,-0.0139 61.956306,61.956306 0 0 1 -0.34003,-0.015 61.956306,61.956306 0 0 1 -0.34003,-0.0176 61.956306,61.956306 0 0 1 -0.34055,-0.0191 61.956306,61.956306 0 0 1 -0.33899,-0.0207 61.956306,61.956306 0 0 1 -0.34003,-0.0233 61.956306,61.956306 0 0 1 -0.33952,-0.0248 61.956306,61.956306 0 0 1 -0.339,-0.0263 61.956306,61.956306 0 0 1 -0.34003,-0.0284 61.956306,61.956306 0 0 1 -0.33848,-0.0305 61.956306,61.956306 0 0 1 -0.33951,-0.032 61.956306,61.956306 0 0 1 -0.33848,-0.0341 61.956306,61.956306 0 0 1 -0.33848,-0.0357 61.956306,61.956306 0 0 1 -0.33848,-0.0382 61.956306,61.956306 0 0 1 -0.33848,-0.0398 61.956306,61.956306 0 0 1 -0.33797,-0.0413 61.956306,61.956306 0 0 1 -0.33693,-0.0434 61.956306,61.956306 0 0 1 -0.33796,-0.045 61.956306,61.956306 0 0 1 -0.33745,-0.047 61.956306,61.956306 0 0 1 -0.33641,-0.0491 61.956306,61.956306 0 0 1 -0.33693,-0.0506 61.956306,61.956306 0 0 1 -0.33642,-0.0527 61.956306,61.956306 0 0 1 -0.33589,-0.0543 61.956306,61.956306 0 0 1 -0.3359,-0.0563 61.956306,61.956306 0 0 1 -0.33538,-0.0584 61.956306,61.956306 0 0 1 -0.33486,-0.0599 61.956306,61.956306 0 0 1 -0.33538,-0.0615 61.956306,61.956306 0 0 1 -0.33435,-0.0641 61.956306,61.956306 0 0 1 -0.33383,-0.0651 61.956306,61.956306 0 0 1 -0.33383,-0.0677 61.956306,61.956306 0 0 1 -0.332804,-0.0687 61.956306,61.956306 0 0 1 -0.33383,-0.0713 61.956306,61.956306 0 0 1 -0.33227,-0.0724 61.956306,61.956306 0 0 1 -0.33177,-0.0749 61.956306,61.956306 0 0 1 -0.33176,-0.077 61.956306,61.956306 0 0 1 -0.33176,-0.078 61.956306,61.956306 0 0 1 -0.33073,-0.0801 61.956306,61.956306 0 0 1 -0.33073,-0.0817 61.956306,61.956306 0 0 1 -0.3297,-0.0842 61.956306,61.956306 0 0 1 -0.32917,-0.0853 61.956306,61.956306 0 0 1 -0.32918,-0.0873 61.956306,61.956306 0 0 1 -0.32867,-0.0894 61.956306,61.956306 0 0 1 -0.32814,-0.091 61.956306,61.956306 0 0 1 -0.32763,-0.0925 61.956306,61.956306 0 0 1 -0.32711,-0.0951 61.956306,61.956306 0 0 1 -0.3266,-0.0961 61.956306,61.956306 0 0 1 -0.32556,-0.0982 61.956306,61.956306 0 0 1 -0.32556,-0.10026 61.956306,61.956306 0 0 1 -0.32504,-0.10232 61.956306,61.956306 0 0 1 -0.32402,-0.10283 61.956306,61.956306 0 0 1 -0.32401,-0.10542 61.956306,61.956306 0 0 1 -0.32349,-0.10697 61.956306,61.956306 0 0 1 -0.32246,-0.10852 61.956306,61.956306 0 0 1 -0.32195,-0.11059 61.956306,61.956306 0 0 1 -0.32194,-0.11265 61.956306,61.956306 0 0 1 -0.3204,-0.11421 61.956306,61.956306 0 0 1 -0.31987,-0.11575 61.956306,61.956306 0 0 1 -0.31936,-0.11783 61.956306,61.956306 0 0 1 -0.31885,-0.11937 61.956306,61.956306 0 0 1 -0.31832,-0.12092 61.956306,61.956306 0 0 1 -0.3173,-0.12299 61.956306,61.956306 0 0 1 -0.31677,-0.12506 61.956306,61.956306 0 0 1 -0.31626,-0.12609 61.956306,61.956306 0 0 1 -0.31574,-0.12816 61.956306,61.956306 0 0 1 -0.3142,-0.12971 61.956306,61.956306 0 0 1 -0.31471,-0.13177 61.956306,61.956306 0 0 1 -0.31316,-0.13384 61.956306,61.956306 0 0 1 -0.31212,-0.13488 61.956306,61.956306 0 0 1 -0.31213,-0.13642 61.956306,61.956306 0 0 1 -0.31057,-0.1385 61.956306,61.956306 0 0 1 -0.31058,-0.14004 61.956306,61.956306 0 0 1 -0.30954,-0.14211 61.956306,61.956306 0 0 1 -0.30851,-0.14366 61.956306,61.956306 0 0 1 -0.30799,-0.14521 61.956306,61.956306 0 0 1 -0.30747,-0.14676 61.956306,61.956306 0 0 1 -0.30593,-0.14883 61.956306,61.956306 0 0 1 -0.30541,-0.15038 61.956306,61.956306 0 0 1 -0.30437,-0.15193 61.956306,61.956306 0 0 1 -0.30386,-0.15399 61.956306,61.956306 0 0 1 -0.30334,-0.15503 61.956306,61.956306 0 0 1 -0.30231,-0.1571 61.956306,61.956306 0 0 1 -0.30075,-0.15865 61.956306,61.956306 0 0 1 -0.30076,-0.16071 61.956306,61.956306 0 0 1 -0.29921,-0.16226 61.956306,61.956306 0 0 1 -0.29869,-0.16278 61.956306,61.956306 0 0 1 -0.29714,-0.16589 61.956306,61.956306 0 0 1 -0.29714,-0.16639 61.956306,61.956306 0 0 1 -0.29558,-0.16847 61.956306,61.956306 0 0 1 -0.29508,-0.17001 61.956306,61.956306 0 0 1 -0.29352,-0.17209 61.956306,61.956306 0 0 1 -0.29352,-0.17363 61.956306,61.956306 0 0 1 -0.29197,-0.17467 61.956306,61.956306 0 0 1 -0.29094,-0.17673 61.956306,61.956306 0 0 1 -0.29042,-0.17828 61.956306,61.956306 0 0 1 -0.28939,-0.17984 61.956306,61.956306 0 0 1 -0.28784,-0.18138 61.956306,61.956306 0 0 1 -0.2868,-0.18294 61.956306,61.956306 0 0 1 -0.0801,-0.0517 z" />
        <path
           id="path967-4-9-0"
           style="fill:#ffdca5;fill-opacity:1;stroke-width:2.50259;stroke-linecap:round;stroke-linejoin:round;stroke-dasharray:5.00518, 2.50259;stroke-dashoffset:2.50259;paint-order:stroke fill markers"
           d="M 161.292,65.921407 A 61.956306,61.956306 0 0 0 99.336086,127.87784 61.956306,61.956306 0 0 0 161.292,189.83426 61.956306,61.956306 0 0 0 223.24843,127.87784 61.956306,61.956306 0 0 0 161.292,65.921407 Z m 0,28.91141 a 33.044839,33.044839 0 0 1 33.04501,33.045023 33.044839,33.044839 0 0 1 -33.04501,33.045 33.044839,33.044839 0 0 1 -33.04449,-33.045 33.044839,33.044839 0 0 1 33.04449,-33.045023 z" />
        <path
           id="path1105-8"
           style="fill:#f7934c;fill-opacity:1;stroke-width:2.50259;stroke-linecap:round;stroke-linejoin:round;stroke-dasharray:5.00518, 2.50259;stroke-dashoffset:2.50259;paint-order:stroke fill markers"
           d="m 63.332606,95.617787 a 61.956306,61.956306 0 0 0 31.57637,15.580443 68.446631,68.446631 0 0 1 6.008424,-15.567003 61.956306,61.956306 0 0 1 -0.28629,0.0904 61.956306,61.956306 0 0 1 -0.32505,0.10077 61.956306,61.956306 0 0 1 -0.326084,0.0987 61.956306,61.956306 0 0 1 -0.32659,0.0971 61.956306,61.956306 0 0 1 -0.3266,0.0956 61.956306,61.956306 0 0 1 -0.32762,0.093 61.956306,61.956306 0 0 1 -0.32763,0.0915 61.956306,61.956306 0 0 1 -0.32815,0.0904 61.956306,61.956306 0 0 1 -0.32918,0.0884 61.956306,61.956306 0 0 1 -0.32918,0.0863 61.956306,61.956306 0 0 1 -0.32969,0.0847 61.956306,61.956306 0 0 1 -0.33021,0.0827 61.956306,61.956306 0 0 1 -0.33125,0.0806 61.956306,61.956306 0 0 1 -0.33073,0.0801 61.956306,61.956306 0 0 1 -0.33125,0.077 61.956306,61.956306 0 0 1 -0.33228,0.0755 61.956306,61.956306 0 0 1 -0.33228,0.0739 61.956306,61.956306 0 0 1 -0.33279,0.0713 61.956306,61.956306 0 0 1 -0.33383,0.0698 61.956306,61.956306 0 0 1 -0.3328,0.0682 61.956306,61.956306 0 0 1 -0.33434,0.0661 61.956306,61.956306 0 0 1 -0.33435,0.0641 61.956306,61.956306 0 0 1 -0.33435,0.063 61.956306,61.956306 0 0 1 -0.33538,0.061 61.956306,61.956306 0 0 1 -0.33486,0.0584 61.956306,61.956306 0 0 1 -0.3359,0.0574 61.956306,61.956306 0 0 1 -0.33589,0.0553 61.956306,61.956306 0 0 1 -0.33642,0.0532 61.956306,61.956306 0 0 1 -0.33641,0.0512 61.956306,61.956306 0 0 1 -0.33693,0.0496 61.956306,61.956306 0 0 1 -0.33745,0.0481 61.956306,61.956306 0 0 1 -0.33693,0.0455 61.956306,61.956306 0 0 1 -0.33745,0.0444 61.956306,61.956306 0 0 1 -0.33796,0.0424 61.956306,61.956306 0 0 1 -0.33796,0.0398 61.956306,61.956306 0 0 1 -0.33848,0.0393 61.956306,61.956306 0 0 1 -0.33848,0.0362 61.956306,61.956306 0 0 1 -0.33848,0.0351 61.956306,61.956306 0 0 1 -0.339,0.0331 61.956306,61.956306 0 0 1 -0.339,0.0305 61.956306,61.956306 0 0 1 -0.339,0.0289 61.956306,61.956306 0 0 1 -0.33951,0.0279 61.956306,61.956306 0 0 1 -0.33951,0.0253 61.956306,61.956306 0 0 1 -0.33952,0.0238 61.956306,61.956306 0 0 1 -0.34003,0.0212 61.956306,61.956306 0 0 1 -0.33951,0.0202 61.956306,61.956306 0 0 1 -0.34055,0.0181 61.956306,61.956306 0 0 1 -0.34003,0.016 61.956306,61.956306 0 0 1 -0.34003,0.0145 61.956306,61.956306 0 0 1 -0.34003,0.0119 61.956306,61.956306 0 0 1 -0.34055,0.0109 61.956306,61.956306 0 0 1 -0.34055,0.009 61.956306,61.956306 0 0 1 -0.34003,0.007 61.956306,61.956306 0 0 1 -0.34055,0.005 61.956306,61.956306 0 0 1 -0.34003,0.003 61.956306,61.956306 0 0 1 -0.34055,10e-4 61.956306,61.956306 0 0 1 -0.34054,-10e-4 61.956306,61.956306 0 0 1 -0.34055,-0.003 61.956306,61.956306 0 0 1 -0.34055,-0.004 61.956306,61.956306 0 0 1 -0.34055,-0.006 61.956306,61.956306 0 0 1 -0.34055,-0.008 61.956306,61.956306 0 0 1 -0.34003,-0.01 61.956306,61.956306 0 0 1 -0.34003,-0.0124 61.956306,61.956306 0 0 1 -0.34055,-0.014 61.956306,61.956306 0 0 1 -0.33951,-0.015 61.956306,61.956306 0 0 1 -0.34003,-0.0176 61.956306,61.956306 0 0 1 -0.34055,-0.0191 61.956306,61.956306 0 0 1 -0.339,-0.0212 61.956306,61.956306 0 0 1 -0.34003,-0.0227 61.956306,61.956306 0 0 1 -0.34003,-0.0253 61.956306,61.956306 0 0 1 -0.33899,-0.0269 61.956306,61.956306 0 0 1 -0.33952,-0.0289 61.956306,61.956306 0 0 1 -0.339,-0.0305 61.956306,61.956306 0 0 1 -0.33848,-0.0326 61.956306,61.956306 0 0 1 -0.33899,-0.0341 61.956306,61.956306 0 0 1 -0.33849,-0.0367 61.956306,61.956306 0 0 1 -0.33848,-0.0377 61.956306,61.956306 0 0 1 -0.33796,-0.0398 61.956306,61.956306 0 0 1 -0.33796,-0.0419 61.956306,61.956306 0 0 1 -0.33745,-0.0434 61.956306,61.956306 0 0 1 -0.33797,-0.0455 61.956306,61.956306 0 0 1 -0.33692,-0.0475 61.956306,61.956306 0 0 1 -0.33642,-0.0491 61.956306,61.956306 0 0 1 -0.33693,-0.0506 61.956306,61.956306 0 0 1 -0.33641,-0.0532 61.956306,61.956306 0 0 1 -0.3359,-0.0543 61.956306,61.956306 0 0 1 -0.33589,-0.0573 61.956306,61.956306 0 0 1 -0.33539,-0.0579 61.956306,61.956306 0 0 1 -0.33486,-0.0605 61.956306,61.956306 0 0 1 -0.33486,-0.0615 61.956306,61.956306 0 0 1 -0.33435,-0.0646 61.956306,61.956306 0 0 1 -0.33435,-0.0656 61.956306,61.956306 0 0 1 -0.33331,-0.0672 61.956306,61.956306 0 0 1 -0.33331,-0.0698 61.956306,61.956306 0 0 1 -0.33331,-0.0713 61.956306,61.956306 0 0 1 -0.33228,-0.0729 61.956306,61.956306 0 0 1 -0.33228,-0.0754 61.956306,61.956306 0 0 1 -0.33177,-0.0765 61.956306,61.956306 0 0 1 -0.33124,-0.0786 61.956306,61.956306 0 0 1 -0.33073,-0.0801 61.956306,61.956306 0 0 1 -0.33021,-0.0827 61.956306,61.956306 0 0 1 -0.33021,-0.0837 61.956306,61.956306 0 0 1 -0.32918,-0.0858 61.956306,61.956306 0 0 1 -0.32918,-0.0879 61.956306,61.956306 0 0 1 -0.32815,-0.0894 61.956306,61.956306 0 0 1 -0.32866,-0.0915 61.956306,61.956306 0 0 1 -0.32711,-0.093 61.956306,61.956306 0 0 1 -0.3266,-0.0946 61.956306,61.956306 0 0 1 -0.32711,-0.0966 61.956306,61.956306 0 0 1 -0.32608,-0.0987 61.956306,61.956306 0 0 1 -0.32504,-0.10025 61.956306,61.956306 0 0 1 -0.32453,-0.1018 61.956306,61.956306 0 0 1 -0.091,-0.0295 z" />
        <path
           id="path1096-5"
           style="fill:#3d3846;fill-opacity:1;stroke-width:2.50259;stroke-linecap:round;stroke-linejoin:round;stroke-dasharray:5.00518, 2.50259;stroke-dashoffset:2.50259;paint-order:stroke fill markers"
           d="m 93.359716,119.50264 a 61.956306,61.956306 0 0 1 -0.0744,0.0584 61.956306,61.956306 0 0 1 -0.2682,0.20929 61.956306,61.956306 0 0 1 -0.26975,0.20826 61.956306,61.956306 0 0 1 -0.27078,0.20619 61.956306,61.956306 0 0 1 -0.27234,0.20463 61.956306,61.956306 0 0 1 -0.27285,0.20361 61.956306,61.956306 0 0 1 -0.27389,0.20154 61.956306,61.956306 0 0 1 -0.27543,0.2005 61.956306,61.956306 0 0 1 -0.27647,0.19896 61.956306,61.956306 0 0 1 -0.2775,0.1974 61.956306,61.956306 0 0 1 -0.27854,0.19534 61.956306,61.956306 0 0 1 -0.27957,0.19482 61.956306,61.956306 0 0 1 -0.2806,0.19223 61.956306,61.956306 0 0 1 -0.28164,0.19121 61.956306,61.956306 0 0 1 -0.28318,0.18965 61.956306,61.956306 0 0 1 -0.28371,0.1881 61.956306,61.956306 0 0 1 -0.28473,0.18655 61.956306,61.956306 0 0 1 -0.28578,0.18499 61.956306,61.956306 0 0 1 -0.28732,0.18294 61.956306,61.956306 0 0 1 -0.28732,0.1819 61.956306,61.956306 0 0 1 -0.28887,0.18037 61.956306,61.956306 0 0 1 -0.2899,0.17827 61.956306,61.956306 0 0 1 -0.29094,0.17725 61.956306,61.956306 0 0 1 -0.29197,0.17518 61.956306,61.956306 0 0 1 -0.29301,0.17364 61.956306,61.956306 0 0 1 -0.29352,0.17259 61.956306,61.956306 0 0 1 -0.29456,0.17055 61.956306,61.956306 0 0 1 -0.29559,0.16846 61.956306,61.956306 0 0 1 -0.2961,0.16743 61.956306,61.956306 0 0 1 -0.29766,0.16589 61.956306,61.956306 0 0 1 -0.29869,0.16381 61.956306,61.956306 0 0 1 -0.2992,0.16227 61.956306,61.956306 0 0 1 -0.30025,0.1607 61.956306,61.956306 0 0 1 -0.30075,0.15918 61.956306,61.956306 0 0 1 -0.30179,0.15761 61.956306,61.956306 0 0 1 -0.30283,0.15555 61.956306,61.956306 0 0 1 -0.30334,0.15398 61.956306,61.956306 0 0 1 -0.30489,0.15246 61.956306,61.956306 0 0 1 -0.30489,0.15089 61.956306,61.956306 0 0 1 -0.30592,0.14883 61.956306,61.956306 0 0 1 -0.30696,0.14779 61.956306,61.956306 0 0 1 -0.30799,0.14571 61.956306,61.956306 0 0 1 -0.30851,0.1442 61.956306,61.956306 0 0 1 -0.30903,0.14211 61.956306,61.956306 0 0 1 -0.31005,0.14107 61.956306,61.956306 0 0 1 -0.26459,0.11782 61.956306,61.956306 0 0 1 -0.31109,0.13798 61.956306,61.956306 0 0 1 -0.31264,0.13486 61.956306,61.956306 0 0 1 -0.31316,0.13438 61.956306,61.956306 0 0 1 -0.31316,0.13229 61.956306,61.956306 0 0 1 -0.31471,0.13073 61.956306,61.956306 0 0 1 -0.31471,0.12867 61.956306,61.956306 0 0 1 -0.31626,0.12713 61.956306,61.956306 0 0 1 -0.31678,0.12557 61.956306,61.956306 0 0 1 -0.31729,0.12351 61.956306,61.956306 0 0 1 -0.31781,0.12195 61.956306,61.956306 0 0 1 -0.31833,0.12041 61.956306,61.956306 0 0 1 -0.31884,0.11782 61.956306,61.956306 0 0 1 -0.32039,0.11731 61.956306,61.956306 0 0 1 -0.31988,0.11473 61.956306,61.956306 0 0 1 -0.32194,0.11266 61.956306,61.956306 0 0 1 -0.32143,0.1116 61.956306,61.956306 0 0 1 -0.32246,0.10956 61.956306,61.956306 0 0 1 -0.32246,0.10748 61.956306,61.956306 0 0 1 -0.3235,0.10594 61.956306,61.956306 0 0 1 -0.32453,0.1049 61.956306,61.956306 0 0 1 -0.32452,0.10181 61.956306,61.956306 0 0 1 -0.32505,0.10129 61.956306,61.956306 0 0 1 -0.32608,0.0987 61.956306,61.956306 0 0 1 -0.32659,0.0971 61.956306,61.956306 0 0 1 -0.3266,0.0951 61.956306,61.956306 0 0 1 -0.32711,0.0935 61.956306,61.956306 0 0 1 -0.32814,0.091 61.956306,61.956306 0 0 1 -0.32815,0.0909 61.956306,61.956306 0 0 1 -0.32918,0.0879 61.956306,61.956306 0 0 1 -0.32918,0.0863 61.956306,61.956306 0 0 1 -0.32969,0.0848 61.956306,61.956306 0 0 1 -0.33022,0.0827 61.956306,61.956306 0 0 1 -0.33124,0.0812 61.956306,61.956306 0 0 1 -0.33073,0.0796 61.956306,61.956306 0 0 1 -0.33125,0.0775 61.956306,61.956306 0 0 1 -0.33227,0.0749 61.956306,61.956306 0 0 1 -0.33228,0.0739 61.956306,61.956306 0 0 1 -0.3328,0.0718 61.956306,61.956306 0 0 1 -0.33383,0.0693 61.956306,61.956306 0 0 1 -0.3328,0.0682 61.956306,61.956306 0 0 1 -0.33434,0.0661 61.956306,61.956306 0 0 1 -0.33383,0.0646 61.956306,61.956306 0 0 1 -0.33487,0.0625 61.956306,61.956306 0 0 1 -0.33538,0.061 61.956306,61.956306 0 0 1 -0.33486,0.0584 61.956306,61.956306 0 0 1 -0.3359,0.0574 61.956306,61.956306 0 0 1 -0.33589,0.0553 61.956306,61.956306 0 0 1 -0.3359,0.0532 61.956306,61.956306 0 0 1 -0.33693,0.0512 61.956306,61.956306 0 0 1 -0.33693,0.0496 61.956306,61.956306 0 0 1 -0.33745,0.048 61.956306,61.956306 0 0 1 -0.33693,0.046 61.956306,61.956306 0 0 1 -0.33744,0.0444 61.956306,61.956306 0 0 1 -0.33797,0.0419 61.956306,61.956306 0 0 1 -0.33796,0.0403 61.956306,61.956306 0 0 1 -0.33848,0.0388 61.956306,61.956306 0 0 1 -0.33849,0.0362 61.956306,61.956306 0 0 1 -0.33848,0.0351 61.956306,61.956306 0 0 1 -0.33899,0.0331 61.956306,61.956306 0 0 1 -0.339,0.0305 61.956306,61.956306 0 0 1 -0.339,0.0295 61.956306,61.956306 0 0 1 -0.33951,0.0274 61.956306,61.956306 0 0 1 -0.33952,0.0253 61.956306,61.956306 0 0 1 -0.33951,0.0238 61.956306,61.956306 0 0 1 -0.34003,0.0217 61.956306,61.956306 0 0 1 -0.33952,0.0201 61.956306,61.956306 0 0 1 -0.34054,0.0176 61.956306,61.956306 0 0 1 -0.34003,0.0165 61.956306,61.956306 0 0 1 -0.33952,0.014 61.956306,61.956306 0 0 1 -0.34055,0.0124 61.956306,61.956306 0 0 1 -0.34054,0.0103 61.956306,61.956306 0 0 1 -0.34055,0.009 61.956306,61.956306 0 0 1 -0.34003,0.007 61.956306,61.956306 0 0 1 -0.34055,0.005 61.956306,61.956306 0 0 1 -0.34003,0.003 61.956306,61.956306 0 0 1 -0.34055,10e-4 61.956306,61.956306 0 0 1 -0.34055,-10e-4 61.956306,61.956306 0 0 1 -0.34054,-0.003 61.956306,61.956306 0 0 1 -0.34055,-0.004 61.956306,61.956306 0 0 1 -0.34055,-0.006 61.956306,61.956306 0 0 1 -0.34003,-0.008 61.956306,61.956306 0 0 1 -0.34003,-0.0103 61.956306,61.956306 0 0 1 -0.34055,-0.0119 61.956306,61.956306 0 0 1 -0.34055,-0.0144 61.956306,61.956306 0 0 1 -0.33951,-0.015 61.956306,61.956306 0 0 1 -0.34003,-0.0176 61.956306,61.956306 0 0 1 -0.34055,-0.0191 61.956306,61.956306 0 0 1 -0.339,-0.0212 61.956306,61.956306 0 0 1 -0.34003,-0.0228 61.956306,61.956306 0 0 1 -0.34003,-0.0253 61.956306,61.956306 0 0 1 -0.339,-0.0269 61.956306,61.956306 0 0 1 -0.33899,-0.0289 61.956306,61.956306 0 0 1 -0.339,-0.0305 61.956306,61.956306 0 0 1 -0.339,-0.0325 61.956306,61.956306 0 0 1 -0.339,-0.0341 61.956306,61.956306 0 0 1 -0.33848,-0.0362 61.956306,61.956306 0 0 1 -0.33848,-0.0383 61.956306,61.956306 0 0 1 -0.33796,-0.0398 61.956306,61.956306 0 0 1 -0.33796,-0.0419 61.956306,61.956306 0 0 1 -0.33745,-0.0434 61.956306,61.956306 0 0 1 -0.33745,-0.0455 61.956306,61.956306 0 0 1 -0.33744,-0.0476 61.956306,61.956306 0 0 1 -0.33642,-0.0491 61.956306,61.956306 0 0 1 -0.33693,-0.0506 61.956306,61.956306 0 0 1 -0.33641,-0.0532 61.956306,61.956306 0 0 1 -0.3359,-0.0543 61.956306,61.956306 0 0 1 -0.3359,-0.0568 61.956306,61.956306 0 0 1 -0.33538,-0.0584 61.956306,61.956306 0 0 1 -0.33486,-0.0604 61.956306,61.956306 0 0 1 -0.33486,-0.0615 61.956306,61.956306 0 0 1 -0.33435,-0.0646 61.956306,61.956306 0 0 1 -0.33383,-0.0656 61.956306,61.956306 0 0 1 -0.33383,-0.0672 61.956306,61.956306 0 0 1 -0.33331,-0.0697 61.956306,61.956306 0 0 1 -0.33332,-0.0713 61.956306,61.956306 0 0 1 -0.33227,-0.0728 61.956306,61.956306 0 0 1 -0.33177,-0.075 61.956306,61.956306 0 0 1 -0.33228,-0.077 61.956306,61.956306 0 0 1 -0.33124,-0.0785 61.956306,61.956306 0 0 1 -0.33073,-0.0801 61.956306,61.956306 0 0 1 -0.33021,-0.0827 61.956306,61.956306 0 0 1 -0.33022,-0.0837 61.956306,61.956306 0 0 1 -0.32917,-0.0858 61.956306,61.956306 0 0 1 -0.32918,-0.0878 61.956306,61.956306 0 0 1 -0.32815,-0.0894 61.956306,61.956306 0 0 1 -0.32814,-0.0915 61.956306,61.956306 0 0 1 -0.32763,-0.0925 61.956306,61.956306 0 0 1 -0.3266,-0.0956 61.956306,61.956306 0 0 1 -0.32711,-0.0961 61.956306,61.956306 0 0 1 -0.32608,-0.0987 61.956306,61.956306 0 0 1 -0.32504,-0.0997 61.956306,61.956306 0 0 1 -0.32453,-0.10234 61.956306,61.956306 0 0 1 -0.0909,-0.0294 61.956306,61.956306 0 0 0 58.54113,14.24874 68.446631,68.446631 0 0 1 -1.94511,-16.20107 68.446631,68.446631 0 0 1 0.51419,-8.3752 z" />
        <path
           id="rect1115-1"
           style="fill:#ffdca5;fill-opacity:1;stroke-width:2.07791;stroke-linecap:round;stroke-linejoin:round;stroke-dasharray:4.15581, 2.07791;stroke-dashoffset:2.07791;paint-order:stroke fill markers"
           inkscape:transform-center-x="15.041563"
           inkscape:transform-center-y="64.185461"
           d="m 98.330466,154.72426 -14.24874,61.22003 c -1.31772,5.66161 2.227,11.04916 7.94784,12.0799 l 2.57762,0.46455 c 5.720824,1.03074 11.387454,-2.69756 12.705164,-8.35916 l 9.38599,-40.32571 A 68.446631,68.446631 0 0 1 98.330466,154.72426 Z" />
      </g>
      <g
         id="g2660"
         transform="translate(-5.0548859,21.061515)">
        <path
           id="path2644"
           style="font-style:normal;font-variant:normal;font-weight:normal;font-stretch:normal;font-size:44.4411px;line-height:1;font-family:Quicksand;-inkscape-font-specification:Quicksand;letter-spacing:4.62928px;fill:#3d3846;fill-opacity:1;stroke-width:0.462927"
           d="m 265.77344,141.8125 c -5.22715,0.29954 -9.60162,4.94532 -10.07462,10.07557 -0.7212,4.29602 0.51063,9.16521 3.99203,11.98003 4.31494,3.60582 11.35903,3.60695 15.42815,-0.39259 0.86789,-0.72828 1.92086,-1.83847 1.46498,-3.06145 -0.57175,-1.19594 -2.50856,-1.26808 -3.10776,-0.0584 -2.828,3.31332 -8.34785,3.50373 -11.54935,0.63029 -1.85696,-1.54547 -2.64613,-3.98092 -2.80578,-6.32194 5.58621,0.0479 11.18018,0.12498 16.76172,-0.0547 1.26886,-0.24672 1.55488,-1.74046 1.36328,-2.82618 -0.34276,-4.39314 -3.54198,-8.49535 -7.85154,-9.60391 -1.17727,-0.31558 -2.40574,-0.41139 -3.62111,-0.36679 z m 0.72461,3.61719 c 3.26173,-0.0204 6.48631,2.4791 6.94531,5.76953 -1.11387,0.22002 -2.26741,-0.0589 -3.39842,0.0464 -3.54945,0.0182 -7.09897,0.007 -10.64846,0.0103 0.51439,-1.74282 1.52457,-3.36779 2.92029,-4.42464 1.18652,-0.91906 2.68358,-1.40442 4.18128,-1.40153 z" />
        <path
           id="path2646"
           style="font-style:normal;font-variant:normal;font-weight:normal;font-stretch:normal;font-size:44.4411px;line-height:1;font-family:Quicksand;-inkscape-font-specification:Quicksand;letter-spacing:4.62928px;fill:#3d3846;fill-opacity:1;stroke-width:0.462927"
           d="m 296.83789,141.81836 c -2.7087,0.16661 -4.99993,1.93302 -6.69531,3.93164 -0.22004,-0.79972 0.23435,-1.71874 -0.37891,-2.42188 -0.63907,-1.05161 -2.30353,-1.19349 -3.01172,-0.14062 -0.77122,1.09315 -0.27799,2.48784 -0.40277,3.71914 0.0363,6.0226 -0.0604,12.04667 0.10394,18.06797 0.60058,1.59731 3.3548,1.35489 3.57618,-0.36328 0.13995,-3.69385 -0.0275,-7.3963 0.0818,-11.09095 0.0668,-1.80686 0.52329,-3.7628 1.69653,-5.30503 1.13174,-1.56607 2.86598,-2.91571 4.85203,-3.00274 1.04088,0.22442 2.40278,0.7991 3.25051,-0.16378 0.93885,-1.09716 0.17341,-3.04686 -1.30469,-3.11719 -0.57884,-0.13423 -1.17684,-0.13179 -1.76758,-0.11328 z" />
        <path
           id="path2648"
           style="font-style:normal;font-variant:normal;font-weight:normal;font-stretch:normal;font-size:44.4411px;line-height:1;font-family:Quicksand;-inkscape-font-specification:Quicksand;letter-spacing:4.62928px;fill:#3d3846;fill-opacity:1;stroke-width:0.462927"
           d="m 315.85352,141.8125 c -5.20582,0.30997 -9.55611,4.92791 -10.05133,10.03453 -0.72211,4.29913 0.48259,9.17746 3.96734,12.00258 3.99567,3.3158 10.26526,3.65822 14.43945,0.47461 1.04654,-0.78283 2.10528,-1.71542 2.60938,-2.9375 0.27939,-1.42574 -1.71778,-2.60277 -2.76115,-1.51818 -1.04867,1.0524 -2.12041,2.16246 -3.5785,2.6254 -3.82874,1.45738 -8.79083,-0.26103 -10.40216,-4.15561 -0.51237,-1.15849 -0.75134,-2.418 -0.86171,-3.67427 5.58438,0.0489 11.17555,0.12269 16.75586,-0.0527 1.30074,-0.23922 1.57518,-1.78518 1.3689,-2.88418 -0.34418,-4.49084 -3.75287,-8.66417 -8.20963,-9.63282 -1.07138,-0.24984 -2.17853,-0.32659 -3.27645,-0.28183 z m 0.66992,3.61523 c 3.28713,-0.0561 6.55458,2.45352 7.02539,5.76758 -1.0807,0.20462 -2.20364,-0.0319 -3.30195,0.0536 -3.58295,0.002 -7.16589,0.005 -10.74883,0.007 0.80666,-2.99103 3.38101,-5.66702 6.59804,-5.80162 0.14246,-0.009 0.28487,-0.0186 0.42735,-0.0265 z" />
        <path
           id="path2650"
           style="font-style:normal;font-variant:normal;font-weight:normal;font-stretch:normal;font-size:44.4411px;line-height:1;font-family:Quicksand;-inkscape-font-specification:Quicksand;letter-spacing:4.62928px;fill:#3d3846;fill-opacity:1;stroke-width:0.462927"
           d="m 345.75586,141.79102 c -5.12694,0.0334 -9.73738,4.16465 -10.66984,9.14864 -1.14725,4.83672 0.39063,10.48384 4.47977,13.50903 3.99284,3.05326 10.07861,2.66381 13.76233,-0.7065 0.69503,-0.17161 0.97001,0.78856 0.70877,1.29629 -0.3163,3.01492 -2.71609,5.7086 -5.74001,6.19394 -2.9786,0.64134 -5.98686,-0.32764 -8.71094,-1.47265 -0.91348,-0.32552 -2.07138,0.43058 -1.83594,1.45507 0.25986,1.55712 1.88102,2.35245 3.22656,2.82193 4.01753,1.43579 8.80592,1.31908 12.38605,-1.18336 2.93282,-1.9615 4.34895,-5.53194 4.47212,-8.95938 0.0281,-3.45459 -0.0395,-6.91242 -0.006,-10.36863 -4e-4,-3.32311 -0.005,-6.6466 -0.094,-9.96876 -0.49478,-1.59987 -3.19521,-1.56831 -3.56446,0.0937 -0.13093,0.3745 -0.0292,1.51467 -0.38176,1.34185 -2.22567,-1.9005 -5.03164,-3.35647 -8.0323,-3.20122 z m 0.86719,3.5332 c 3.81016,0.068 7.15171,3.34649 7.5192,7.10199 0.56924,3.51573 -0.65698,7.5874 -3.80974,9.5167 -3.52234,2.14032 -8.76412,0.91182 -10.67235,-2.83353 -2.14177,-3.81416 -1.59314,-9.19325 1.85546,-12.07032 1.42002,-1.1733 3.27275,-1.76391 5.10743,-1.71484 z" />
        <path
           id="path2652"
           style="font-style:normal;font-variant:normal;font-weight:normal;font-stretch:normal;font-size:44.4411px;line-height:1;font-family:Quicksand;-inkscape-font-specification:Quicksand;letter-spacing:4.62928px;fill:#3d3846;fill-opacity:1;stroke-width:0.462927"
           d="m 378.89453,141.81836 c -2.70689,0.17047 -4.99778,1.93233 -6.69336,3.92969 -0.20822,-0.85123 0.22645,-1.83644 -0.45117,-2.5625 -0.84567,-1.11855 -2.85318,-0.83703 -3.26367,0.53711 -0.23955,1.14295 -0.0103,2.34086 -0.0736,3.50468 0.0275,5.90858 -0.0535,11.8183 0.0951,17.72578 0.57562,1.61356 3.35321,1.39242 3.57617,-0.33203 0.14847,-3.70316 -0.0213,-7.41684 0.0847,-11.12158 0.0399,-2.77845 1.29447,-5.5724 3.59701,-7.19407 1.11049,-0.74753 2.53779,-1.43791 3.87234,-0.86849 0.96714,0.34823 2.35438,0.15636 2.65884,-0.98773 0.38921,-1.11649 -0.42478,-2.42207 -1.61719,-2.51367 -0.58299,-0.13945 -1.18953,-0.13408 -1.78516,-0.11719 z" />
        <path
           id="path2654"
           style="font-style:normal;font-variant:normal;font-weight:normal;font-stretch:normal;font-size:44.4411px;line-height:1;font-family:Quicksand;-inkscape-font-specification:Quicksand;letter-spacing:4.62928px;fill:#3d3846;fill-opacity:1;stroke-width:0.462927"
           d="m 392.26758,135.20898 c -0.99178,-0.10807 -2.09912,0.26566 -2.51195,1.24789 -0.69199,1.27759 -0.089,3.16231 1.41429,3.48454 1.4618,0.49738 3.28402,-0.642 3.16797,-2.26368 0.0617,-1.17862 -0.80386,-2.47385 -2.07031,-2.46875 z m -0.51367,6.71485 c -1.39386,0.11598 -1.97846,1.75541 -1.68746,2.95742 0.0173,6.69192 -0.0537,13.38481 0.0898,20.07578 0.57979,1.59093 3.32329,1.40061 3.57031,-0.30859 0.13752,-3.12583 0.009,-6.26183 0.0657,-9.3918 5.9e-4,-4.03747 0.0227,-8.07586 -0.095,-12.11211 -0.34465,-0.741 -1.10798,-1.28196 -1.94336,-1.2207 z" />
        <path
           id="path2656"
           style="font-style:normal;font-variant:normal;font-weight:normal;font-stretch:normal;font-size:44.4411px;line-height:1;font-family:Quicksand;-inkscape-font-specification:Quicksand;letter-spacing:4.62928px;fill:#3d3846;fill-opacity:1;stroke-width:0.462927"
           d="m 414.99609,141.81055 c -2.59573,0.11974 -4.92196,1.51435 -6.86132,3.14843 0.026,-1.15711 -0.71435,-2.56724 -2.02539,-2.50976 -1.33622,0.0548 -2.16235,1.54687 -1.83116,2.76445 0.0554,6.57972 -0.0488,13.16074 0.1085,19.73945 0.57576,1.61178 3.34729,1.39356 3.57617,-0.32812 0.14884,-4.17998 -0.0408,-8.37077 0.0998,-12.5523 0.0653,-1.27155 0.12278,-2.62592 0.94861,-3.6688 1.91249,-2.78907 6.06173,-4.0174 9.04468,-2.26214 1.87005,1.2614 2.39728,3.69237 2.26378,5.8164 0.10563,4.21833 -0.14414,8.44725 0.14115,12.65903 0.0539,0.89826 0.88033,1.55591 1.76367,1.45117 1.14351,0.007 2.07275,-1.13618 1.80634,-2.25468 0.008,-4.38865 0.10429,-8.78043 -0.029,-13.1672 -0.0541,-2.275 -0.588,-4.65125 -2.17047,-6.36951 -1.45919,-1.72648 -3.75076,-2.50563 -5.96663,-2.4696 -0.28965,-0.008 -0.57913,-0.003 -0.86876,0.003 z" />
        <path
           id="path2658"
           style="font-style:normal;font-variant:normal;font-weight:normal;font-stretch:normal;font-size:44.4411px;line-height:1;font-family:Quicksand;-inkscape-font-specification:Quicksand;letter-spacing:4.62928px;fill:#3d3846;fill-opacity:1;stroke-width:0.462927"
           d="m 443.35352,141.8125 c -5.25413,0.31376 -9.63754,5.00271 -10.07349,10.1667 -0.69656,4.2937 0.55923,9.15756 4.06786,11.93449 4.25512,3.498 11.12024,3.56174 15.18231,-0.27462 0.91582,-0.75341 2.04636,-1.8302 1.67878,-3.13712 -0.50529,-1.26087 -2.50651,-1.39092 -3.12588,-0.15845 -1.99844,2.31994 -5.35667,3.18642 -8.27413,2.36887 -2.62434,-0.66311 -4.8799,-2.70667 -5.59931,-5.34451 -0.27679,-0.87097 -0.39914,-1.78303 -0.46552,-2.69208 5.63466,0.0237 11.2715,0.12805 16.9043,-0.0723 1.22716,-0.46117 1.38204,-1.94805 1.17243,-3.06789 -0.47833,-4.48644 -3.91427,-8.67676 -8.44233,-9.48511 -0.99258,-0.20693 -2.01196,-0.29012 -3.02502,-0.23802 z m 1.33789,3.64453 c 3.01884,0.25679 5.81734,2.61037 6.36718,5.61719 -0.37173,0.51541 -1.08771,0.0927 -1.61238,0.2092 -4.15293,-0.0746 -8.30662,-0.008 -12.45988,-0.0276 0.8023,-2.89727 3.22833,-5.53243 6.34548,-5.77893 0.45107,-0.0521 0.90687,-0.0486 1.3596,-0.0199 z" />
      </g>
    </g>
  </g>
</svg>
