<?xml version="1.0" encoding="UTF-8" standalone="no"?>
<svg
   xmlns:dc="http://purl.org/dc/elements/1.1/"
   xmlns:cc="http://creativecommons.org/ns#"
   xmlns:rdf="http://www.w3.org/1999/02/22-rdf-syntax-ns#"
   xmlns:svg="http://www.w3.org/2000/svg"
   xmlns="http://www.w3.org/2000/svg"
   xmlns:sodipodi="http://sodipodi.sourceforge.net/DTD/sodipodi-0.dtd"
   xmlns:inkscape="http://www.inkscape.org/namespaces/inkscape"
   inkscape:version="1.0.1 (3bc2e813f5, 2020-09-07)"
   inkscape:export-ydpi="0.75"
   inkscape:export-xdpi="0.75"
   inkscape:export-filename="A:\v_proj\Peregrine\logo\logos\16x16.png"
   id="svg8"
   version="1.1"
   viewBox="0 0 541.86665 541.86668"
   height="2048"
   width="2048"
   sodipodi:docname="logo.svg">
  <style
     id="style1950"></style>
  <defs
     id="defs2" />
  <sodipodi:namedview
     inkscape:pagecheckerboard="false"
     showborder="true"
     borderlayer="false"
     inkscape:showpageshadow="false"
     showgrid="true"
     inkscape:document-rotation="0"
     inkscape:current-layer="layer1"
     inkscape:document-units="px"
     inkscape:cy="1193.2692"
     inkscape:cx="1287.8511"
     inkscape:zoom="0.25998604"
     inkscape:pageshadow="2"
     inkscape:pageopacity="0"
     borderopacity="1.0"
     bordercolor="#666666"
     pagecolor="#ffffff"
     id="base"
     units="px"
     inkscape:snap-page="true"
     inkscape:window-width="1346"
     inkscape:window-height="1009"
     inkscape:window-x="190"
     inkscape:window-y="29"
     inkscape:window-maximized="0" />
  <metadata
     id="metadata5">
    <rdf:RDF>
      <cc:Work
         rdf:about="">
        <dc:format>image/svg+xml</dc:format>
        <dc:type
           rdf:resource="http://purl.org/dc/dcmitype/StillImage" />
        <dc:title></dc:title>
        <cc:license
           rdf:resource="" />
      </cc:Work>
    </rdf:RDF>
  </metadata>
  <g
     id="layer1"
     inkscape:groupmode="layer"
     inkscape:label="Layer 1">
    <g
       id="g1365"
       transform="matrix(2.8947611,0,0,2.8947611,-104.65903,-155.43799)">
      <path
         id="path1113-8"
         style="fill:#ffdca5;fill-opacity:1;stroke-width:2.50259;stroke-linecap:round;stroke-linejoin:round;stroke-dasharray:5.00518, 2.50259;stroke-dashoffset:2.50259;paint-order:stroke fill markers"
         d="m 79.116656,66.203047 a 61.956306,61.956306 0 0 0 25.750884,22.92935 68.446631,68.446631 0 0 1 11.87628,-13.21935 61.956306,61.956306 0 0 1 -0.27854,0.0176 61.956306,61.956306 0 0 1 -0.33951,0.0202 61.956306,61.956306 0 0 1 -0.34003,0.0186 61.956306,61.956306 0 0 1 -0.34003,0.0165 61.956306,61.956306 0 0 1 -0.34003,0.014 61.956306,61.956306 0 0 1 -0.34055,0.0134 61.956306,61.956306 0 0 1 -0.34055,0.0103 61.956306,61.956306 0 0 1 -0.34003,0.009 61.956306,61.956306 0 0 1 -0.34055,0.007 61.956306,61.956306 0 0 1 -0.34003,0.005 61.956306,61.956306 0 0 1 -0.34055,0.003 61.956306,61.956306 0 0 1 -0.34054,0.002 61.956306,61.956306 0 0 1 -0.34055,-5.1e-4 61.956306,61.956306 0 0 1 -0.34055,-0.002 61.956306,61.956306 0 0 1 -0.34003,-0.004 61.956306,61.956306 0 0 1 -0.34055,-0.006 61.956306,61.956306 0 0 1 -0.34055,-0.008 61.956306,61.956306 0 0 1 -0.34055,-0.009 61.956306,61.956306 0 0 1 -0.34002,-0.0114 61.956306,61.956306 0 0 1 -0.34004,-0.0139 61.956306,61.956306 0 0 1 -0.34003,-0.015 61.956306,61.956306 0 0 1 -0.34003,-0.0176 61.956306,61.956306 0 0 1 -0.34055,-0.0191 61.956306,61.956306 0 0 1 -0.33899,-0.0207 61.956306,61.956306 0 0 1 -0.34003,-0.0233 61.956306,61.956306 0 0 1 -0.33952,-0.0248 61.956306,61.956306 0 0 1 -0.339,-0.0263 61.956306,61.956306 0 0 1 -0.34003,-0.0284 61.956306,61.956306 0 0 1 -0.33848,-0.0305 61.956306,61.956306 0 0 1 -0.33951,-0.032 61.956306,61.956306 0 0 1 -0.33848,-0.0341 61.956306,61.956306 0 0 1 -0.33848,-0.0357 61.956306,61.956306 0 0 1 -0.33848,-0.0382 61.956306,61.956306 0 0 1 -0.33848,-0.0398 61.956306,61.956306 0 0 1 -0.33797,-0.0413 61.956306,61.956306 0 0 1 -0.33693,-0.0434 61.956306,61.956306 0 0 1 -0.33796,-0.045 61.956306,61.956306 0 0 1 -0.33745,-0.047 61.956306,61.956306 0 0 1 -0.33641,-0.0491 61.956306,61.956306 0 0 1 -0.33693,-0.0506 61.956306,61.956306 0 0 1 -0.33642,-0.0527 61.956306,61.956306 0 0 1 -0.33589,-0.0543 61.956306,61.956306 0 0 1 -0.3359,-0.0563 61.956306,61.956306 0 0 1 -0.33538,-0.0584 61.956306,61.956306 0 0 1 -0.33486,-0.0599 61.956306,61.956306 0 0 1 -0.33538,-0.0615 61.956306,61.956306 0 0 1 -0.33435,-0.0641 61.956306,61.956306 0 0 1 -0.33383,-0.0651 61.956306,61.956306 0 0 1 -0.33383,-0.0677 61.956306,61.956306 0 0 1 -0.332804,-0.0687 61.956306,61.956306 0 0 1 -0.33383,-0.0713 61.956306,61.956306 0 0 1 -0.33227,-0.0724 61.956306,61.956306 0 0 1 -0.33177,-0.0749 61.956306,61.956306 0 0 1 -0.33176,-0.077 61.956306,61.956306 0 0 1 -0.33176,-0.078 61.956306,61.956306 0 0 1 -0.33073,-0.0801 61.956306,61.956306 0 0 1 -0.33073,-0.0817 61.956306,61.956306 0 0 1 -0.3297,-0.0842 61.956306,61.956306 0 0 1 -0.32917,-0.0853 61.956306,61.956306 0 0 1 -0.32918,-0.0873 61.956306,61.956306 0 0 1 -0.32867,-0.0894 61.956306,61.956306 0 0 1 -0.32814,-0.091 61.956306,61.956306 0 0 1 -0.32763,-0.0925 61.956306,61.956306 0 0 1 -0.32711,-0.0951 61.956306,61.956306 0 0 1 -0.3266,-0.0961 61.956306,61.956306 0 0 1 -0.32556,-0.0982 61.956306,61.956306 0 0 1 -0.32556,-0.10026 61.956306,61.956306 0 0 1 -0.32504,-0.10232 61.956306,61.956306 0 0 1 -0.32402,-0.10283 61.956306,61.956306 0 0 1 -0.32401,-0.10542 61.956306,61.956306 0 0 1 -0.32349,-0.10697 61.956306,61.956306 0 0 1 -0.32246,-0.10852 61.956306,61.956306 0 0 1 -0.32195,-0.11059 61.956306,61.956306 0 0 1 -0.32194,-0.11265 61.956306,61.956306 0 0 1 -0.3204,-0.11421 61.956306,61.956306 0 0 1 -0.31987,-0.11575 61.956306,61.956306 0 0 1 -0.31936,-0.11783 61.956306,61.956306 0 0 1 -0.31885,-0.11937 61.956306,61.956306 0 0 1 -0.31832,-0.12092 61.956306,61.956306 0 0 1 -0.3173,-0.12299 61.956306,61.956306 0 0 1 -0.31677,-0.12506 61.956306,61.956306 0 0 1 -0.31626,-0.12609 61.956306,61.956306 0 0 1 -0.31574,-0.12816 61.956306,61.956306 0 0 1 -0.3142,-0.12971 61.956306,61.956306 0 0 1 -0.31471,-0.13177 61.956306,61.956306 0 0 1 -0.31316,-0.13384 61.956306,61.956306 0 0 1 -0.31212,-0.13488 61.956306,61.956306 0 0 1 -0.31213,-0.13642 61.956306,61.956306 0 0 1 -0.31057,-0.1385 61.956306,61.956306 0 0 1 -0.31058,-0.14004 61.956306,61.956306 0 0 1 -0.30954,-0.14211 61.956306,61.956306 0 0 1 -0.30851,-0.14366 61.956306,61.956306 0 0 1 -0.30799,-0.14521 61.956306,61.956306 0 0 1 -0.30747,-0.14676 61.956306,61.956306 0 0 1 -0.30593,-0.14883 61.956306,61.956306 0 0 1 -0.30541,-0.15038 61.956306,61.956306 0 0 1 -0.30437,-0.15193 61.956306,61.956306 0 0 1 -0.30386,-0.15399 61.956306,61.956306 0 0 1 -0.30334,-0.15503 61.956306,61.956306 0 0 1 -0.30231,-0.1571 61.956306,61.956306 0 0 1 -0.30075,-0.15865 61.956306,61.956306 0 0 1 -0.30076,-0.16071 61.956306,61.956306 0 0 1 -0.29921,-0.16226 61.956306,61.956306 0 0 1 -0.29869,-0.16278 61.956306,61.956306 0 0 1 -0.29714,-0.16589 61.956306,61.956306 0 0 1 -0.29714,-0.16639 61.956306,61.956306 0 0 1 -0.29558,-0.16847 61.956306,61.956306 0 0 1 -0.29508,-0.17001 61.956306,61.956306 0 0 1 -0.29352,-0.17209 61.956306,61.956306 0 0 1 -0.29352,-0.17363 61.956306,61.956306 0 0 1 -0.29197,-0.17467 61.956306,61.956306 0 0 1 -0.29094,-0.17673 61.956306,61.956306 0 0 1 -0.29042,-0.17828 61.956306,61.956306 0 0 1 -0.28939,-0.17984 61.956306,61.956306 0 0 1 -0.28784,-0.18138 61.956306,61.956306 0 0 1 -0.2868,-0.18294 61.956306,61.956306 0 0 1 -0.0801,-0.0517 z" />
      <path
         id="path967-4-9-0"
         style="fill:#ffdca5;fill-opacity:1;stroke-width:2.50259;stroke-linecap:round;stroke-linejoin:round;stroke-dasharray:5.00518, 2.50259;stroke-dashoffset:2.50259;paint-order:stroke fill markers"
         d="M 161.292,65.921407 A 61.956306,61.956306 0 0 0 99.336086,127.87784 61.956306,61.956306 0 0 0 161.292,189.83426 61.956306,61.956306 0 0 0 223.24843,127.87784 61.956306,61.956306 0 0 0 161.292,65.921407 Z m 0,28.91141 a 33.044839,33.044839 0 0 1 33.04501,33.045023 33.044839,33.044839 0 0 1 -33.04501,33.045 33.044839,33.044839 0 0 1 -33.04449,-33.045 33.044839,33.044839 0 0 1 33.04449,-33.045023 z" />
      <path
         id="path1105-8"
         style="fill:#f7934c;fill-opacity:1;stroke-width:2.50259;stroke-linecap:round;stroke-linejoin:round;stroke-dasharray:5.00518, 2.50259;stroke-dashoffset:2.50259;paint-order:stroke fill markers"
         d="m 63.332606,95.617787 a 61.956306,61.956306 0 0 0 31.57637,15.580443 68.446631,68.446631 0 0 1 6.008424,-15.567003 61.956306,61.956306 0 0 1 -0.28629,0.0904 61.956306,61.956306 0 0 1 -0.32505,0.10077 61.956306,61.956306 0 0 1 -0.326084,0.0987 61.956306,61.956306 0 0 1 -0.32659,0.0971 61.956306,61.956306 0 0 1 -0.3266,0.0956 61.956306,61.956306 0 0 1 -0.32762,0.093 61.956306,61.956306 0 0 1 -0.32763,0.0915 61.956306,61.956306 0 0 1 -0.32815,0.0904 61.956306,61.956306 0 0 1 -0.32918,0.0884 61.956306,61.956306 0 0 1 -0.32918,0.0863 61.956306,61.956306 0 0 1 -0.32969,0.0847 61.956306,61.956306 0 0 1 -0.33021,0.0827 61.956306,61.956306 0 0 1 -0.33125,0.0806 61.956306,61.956306 0 0 1 -0.33073,0.0801 61.956306,61.956306 0 0 1 -0.33125,0.077 61.956306,61.956306 0 0 1 -0.33228,0.0755 61.956306,61.956306 0 0 1 -0.33228,0.0739 61.956306,61.956306 0 0 1 -0.33279,0.0713 61.956306,61.956306 0 0 1 -0.33383,0.0698 61.956306,61.956306 0 0 1 -0.3328,0.0682 61.956306,61.956306 0 0 1 -0.33434,0.0661 61.956306,61.956306 0 0 1 -0.33435,0.0641 61.956306,61.956306 0 0 1 -0.33435,0.063 61.956306,61.956306 0 0 1 -0.33538,0.061 61.956306,61.956306 0 0 1 -0.33486,0.0584 61.956306,61.956306 0 0 1 -0.3359,0.0574 61.956306,61.956306 0 0 1 -0.33589,0.0553 61.956306,61.956306 0 0 1 -0.33642,0.0532 61.956306,61.956306 0 0 1 -0.33641,0.0512 61.956306,61.956306 0 0 1 -0.33693,0.0496 61.956306,61.956306 0 0 1 -0.33745,0.0481 61.956306,61.956306 0 0 1 -0.33693,0.0455 61.956306,61.956306 0 0 1 -0.33745,0.0444 61.956306,61.956306 0 0 1 -0.33796,0.0424 61.956306,61.956306 0 0 1 -0.33796,0.0398 61.956306,61.956306 0 0 1 -0.33848,0.0393 61.956306,61.956306 0 0 1 -0.33848,0.0362 61.956306,61.956306 0 0 1 -0.33848,0.0351 61.956306,61.956306 0 0 1 -0.339,0.0331 61.956306,61.956306 0 0 1 -0.339,0.0305 61.956306,61.956306 0 0 1 -0.339,0.0289 61.956306,61.956306 0 0 1 -0.33951,0.0279 61.956306,61.956306 0 0 1 -0.33951,0.0253 61.956306,61.956306 0 0 1 -0.33952,0.0238 61.956306,61.956306 0 0 1 -0.34003,0.0212 61.956306,61.956306 0 0 1 -0.33951,0.0202 61.956306,61.956306 0 0 1 -0.34055,0.0181 61.956306,61.956306 0 0 1 -0.34003,0.016 61.956306,61.956306 0 0 1 -0.34003,0.0145 61.956306,61.956306 0 0 1 -0.34003,0.0119 61.956306,61.956306 0 0 1 -0.34055,0.0109 61.956306,61.956306 0 0 1 -0.34055,0.009 61.956306,61.956306 0 0 1 -0.34003,0.007 61.956306,61.956306 0 0 1 -0.34055,0.005 61.956306,61.956306 0 0 1 -0.34003,0.003 61.956306,61.956306 0 0 1 -0.34055,10e-4 61.956306,61.956306 0 0 1 -0.34054,-10e-4 61.956306,61.956306 0 0 1 -0.34055,-0.003 61.956306,61.956306 0 0 1 -0.34055,-0.004 61.956306,61.956306 0 0 1 -0.34055,-0.006 61.956306,61.956306 0 0 1 -0.34055,-0.008 61.956306,61.956306 0 0 1 -0.34003,-0.01 61.956306,61.956306 0 0 1 -0.34003,-0.0124 61.956306,61.956306 0 0 1 -0.34055,-0.014 61.956306,61.956306 0 0 1 -0.33951,-0.015 61.956306,61.956306 0 0 1 -0.34003,-0.0176 61.956306,61.956306 0 0 1 -0.34055,-0.0191 61.956306,61.956306 0 0 1 -0.339,-0.0212 61.956306,61.956306 0 0 1 -0.34003,-0.0227 61.956306,61.956306 0 0 1 -0.34003,-0.0253 61.956306,61.956306 0 0 1 -0.33899,-0.0269 61.956306,61.956306 0 0 1 -0.33952,-0.0289 61.956306,61.956306 0 0 1 -0.339,-0.0305 61.956306,61.956306 0 0 1 -0.33848,-0.0326 61.956306,61.956306 0 0 1 -0.33899,-0.0341 61.956306,61.956306 0 0 1 -0.33849,-0.0367 61.956306,61.956306 0 0 1 -0.33848,-0.0377 61.956306,61.956306 0 0 1 -0.33796,-0.0398 61.956306,61.956306 0 0 1 -0.33796,-0.0419 61.956306,61.956306 0 0 1 -0.33745,-0.0434 61.956306,61.956306 0 0 1 -0.33797,-0.0455 61.956306,61.956306 0 0 1 -0.33692,-0.0475 61.956306,61.956306 0 0 1 -0.33642,-0.0491 61.956306,61.956306 0 0 1 -0.33693,-0.0506 61.956306,61.956306 0 0 1 -0.33641,-0.0532 61.956306,61.956306 0 0 1 -0.3359,-0.0543 61.956306,61.956306 0 0 1 -0.33589,-0.0573 61.956306,61.956306 0 0 1 -0.33539,-0.0579 61.956306,61.956306 0 0 1 -0.33486,-0.0605 61.956306,61.956306 0 0 1 -0.33486,-0.0615 61.956306,61.956306 0 0 1 -0.33435,-0.0646 61.956306,61.956306 0 0 1 -0.33435,-0.0656 61.956306,61.956306 0 0 1 -0.33331,-0.0672 61.956306,61.956306 0 0 1 -0.33331,-0.0698 61.956306,61.956306 0 0 1 -0.33331,-0.0713 61.956306,61.956306 0 0 1 -0.33228,-0.0729 61.956306,61.956306 0 0 1 -0.33228,-0.0754 61.956306,61.956306 0 0 1 -0.33177,-0.0765 61.956306,61.956306 0 0 1 -0.33124,-0.0786 61.956306,61.956306 0 0 1 -0.33073,-0.0801 61.956306,61.956306 0 0 1 -0.33021,-0.0827 61.956306,61.956306 0 0 1 -0.33021,-0.0837 61.956306,61.956306 0 0 1 -0.32918,-0.0858 61.956306,61.956306 0 0 1 -0.32918,-0.0879 61.956306,61.956306 0 0 1 -0.32815,-0.0894 61.956306,61.956306 0 0 1 -0.32866,-0.0915 61.956306,61.956306 0 0 1 -0.32711,-0.093 61.956306,61.956306 0 0 1 -0.3266,-0.0946 61.956306,61.956306 0 0 1 -0.32711,-0.0966 61.956306,61.956306 0 0 1 -0.32608,-0.0987 61.956306,61.956306 0 0 1 -0.32504,-0.10025 61.956306,61.956306 0 0 1 -0.32453,-0.1018 61.956306,61.956306 0 0 1 -0.091,-0.0295 z" />
      <path
         id="path1096-5"
         style="fill:#3d3846;fill-opacity:1;stroke-width:2.50259;stroke-linecap:round;stroke-linejoin:round;stroke-dasharray:5.00518, 2.50259;stroke-dashoffset:2.50259;paint-order:stroke fill markers"
         d="m 93.359716,119.50264 a 61.956306,61.956306 0 0 1 -0.0744,0.0584 61.956306,61.956306 0 0 1 -0.2682,0.20929 61.956306,61.956306 0 0 1 -0.26975,0.20826 61.956306,61.956306 0 0 1 -0.27078,0.20619 61.956306,61.956306 0 0 1 -0.27234,0.20463 61.956306,61.956306 0 0 1 -0.27285,0.20361 61.956306,61.956306 0 0 1 -0.27389,0.20154 61.956306,61.956306 0 0 1 -0.27543,0.2005 61.956306,61.956306 0 0 1 -0.27647,0.19896 61.956306,61.956306 0 0 1 -0.2775,0.1974 61.956306,61.956306 0 0 1 -0.27854,0.19534 61.956306,61.956306 0 0 1 -0.27957,0.19482 61.956306,61.956306 0 0 1 -0.2806,0.19223 61.956306,61.956306 0 0 1 -0.28164,0.19121 61.956306,61.956306 0 0 1 -0.28318,0.18965 61.956306,61.956306 0 0 1 -0.28371,0.1881 61.956306,61.956306 0 0 1 -0.28473,0.18655 61.956306,61.956306 0 0 1 -0.28578,0.18499 61.956306,61.956306 0 0 1 -0.28732,0.18294 61.956306,61.956306 0 0 1 -0.28732,0.1819 61.956306,61.956306 0 0 1 -0.28887,0.18037 61.956306,61.956306 0 0 1 -0.2899,0.17827 61.956306,61.956306 0 0 1 -0.29094,0.17725 61.956306,61.956306 0 0 1 -0.29197,0.17518 61.956306,61.956306 0 0 1 -0.29301,0.17364 61.956306,61.956306 0 0 1 -0.29352,0.17259 61.956306,61.956306 0 0 1 -0.29456,0.17055 61.956306,61.956306 0 0 1 -0.29559,0.16846 61.956306,61.956306 0 0 1 -0.2961,0.16743 61.956306,61.956306 0 0 1 -0.29766,0.16589 61.956306,61.956306 0 0 1 -0.29869,0.16381 61.956306,61.956306 0 0 1 -0.2992,0.16227 61.956306,61.956306 0 0 1 -0.30025,0.1607 61.956306,61.956306 0 0 1 -0.30075,0.15918 61.956306,61.956306 0 0 1 -0.30179,0.15761 61.956306,61.956306 0 0 1 -0.30283,0.15555 61.956306,61.956306 0 0 1 -0.30334,0.15398 61.956306,61.956306 0 0 1 -0.30489,0.15246 61.956306,61.956306 0 0 1 -0.30489,0.15089 61.956306,61.956306 0 0 1 -0.30592,0.14883 61.956306,61.956306 0 0 1 -0.30696,0.14779 61.956306,61.956306 0 0 1 -0.30799,0.14571 61.956306,61.956306 0 0 1 -0.30851,0.1442 61.956306,61.956306 0 0 1 -0.30903,0.14211 61.956306,61.956306 0 0 1 -0.31005,0.14107 61.956306,61.956306 0 0 1 -0.26459,0.11782 61.956306,61.956306 0 0 1 -0.31109,0.13798 61.956306,61.956306 0 0 1 -0.31264,0.13486 61.956306,61.956306 0 0 1 -0.31316,0.13438 61.956306,61.956306 0 0 1 -0.31316,0.13229 61.956306,61.956306 0 0 1 -0.31471,0.13073 61.956306,61.956306 0 0 1 -0.31471,0.12867 61.956306,61.956306 0 0 1 -0.31626,0.12713 61.956306,61.956306 0 0 1 -0.31678,0.12557 61.956306,61.956306 0 0 1 -0.31729,0.12351 61.956306,61.956306 0 0 1 -0.31781,0.12195 61.956306,61.956306 0 0 1 -0.31833,0.12041 61.956306,61.956306 0 0 1 -0.31884,0.11782 61.956306,61.956306 0 0 1 -0.32039,0.11731 61.956306,61.956306 0 0 1 -0.31988,0.11473 61.956306,61.956306 0 0 1 -0.32194,0.11266 61.956306,61.956306 0 0 1 -0.32143,0.1116 61.956306,61.956306 0 0 1 -0.32246,0.10956 61.956306,61.956306 0 0 1 -0.32246,0.10748 61.956306,61.956306 0 0 1 -0.3235,0.10594 61.956306,61.956306 0 0 1 -0.32453,0.1049 61.956306,61.956306 0 0 1 -0.32452,0.10181 61.956306,61.956306 0 0 1 -0.32505,0.10129 61.956306,61.956306 0 0 1 -0.32608,0.0987 61.956306,61.956306 0 0 1 -0.32659,0.0971 61.956306,61.956306 0 0 1 -0.3266,0.0951 61.956306,61.956306 0 0 1 -0.32711,0.0935 61.956306,61.956306 0 0 1 -0.32814,0.091 61.956306,61.956306 0 0 1 -0.32815,0.0909 61.956306,61.956306 0 0 1 -0.32918,0.0879 61.956306,61.956306 0 0 1 -0.32918,0.0863 61.956306,61.956306 0 0 1 -0.32969,0.0848 61.956306,61.956306 0 0 1 -0.33022,0.0827 61.956306,61.956306 0 0 1 -0.33124,0.0812 61.956306,61.956306 0 0 1 -0.33073,0.0796 61.956306,61.956306 0 0 1 -0.33125,0.0775 61.956306,61.956306 0 0 1 -0.33227,0.0749 61.956306,61.956306 0 0 1 -0.33228,0.0739 61.956306,61.956306 0 0 1 -0.3328,0.0718 61.956306,61.956306 0 0 1 -0.33383,0.0693 61.956306,61.956306 0 0 1 -0.3328,0.0682 61.956306,61.956306 0 0 1 -0.33434,0.0661 61.956306,61.956306 0 0 1 -0.33383,0.0646 61.956306,61.956306 0 0 1 -0.33487,0.0625 61.956306,61.956306 0 0 1 -0.33538,0.061 61.956306,61.956306 0 0 1 -0.33486,0.0584 61.956306,61.956306 0 0 1 -0.3359,0.0574 61.956306,61.956306 0 0 1 -0.33589,0.0553 61.956306,61.956306 0 0 1 -0.3359,0.0532 61.956306,61.956306 0 0 1 -0.33693,0.0512 61.956306,61.956306 0 0 1 -0.33693,0.0496 61.956306,61.956306 0 0 1 -0.33745,0.048 61.956306,61.956306 0 0 1 -0.33693,0.046 61.956306,61.956306 0 0 1 -0.33744,0.0444 61.956306,61.956306 0 0 1 -0.33797,0.0419 61.956306,61.956306 0 0 1 -0.33796,0.0403 61.956306,61.956306 0 0 1 -0.33848,0.0388 61.956306,61.956306 0 0 1 -0.33849,0.0362 61.956306,61.956306 0 0 1 -0.33848,0.0351 61.956306,61.956306 0 0 1 -0.33899,0.0331 61.956306,61.956306 0 0 1 -0.339,0.0305 61.956306,61.956306 0 0 1 -0.339,0.0295 61.956306,61.956306 0 0 1 -0.33951,0.0274 61.956306,61.956306 0 0 1 -0.33952,0.0253 61.956306,61.956306 0 0 1 -0.33951,0.0238 61.956306,61.956306 0 0 1 -0.34003,0.0217 61.956306,61.956306 0 0 1 -0.33952,0.0201 61.956306,61.956306 0 0 1 -0.34054,0.0176 61.956306,61.956306 0 0 1 -0.34003,0.0165 61.956306,61.956306 0 0 1 -0.33952,0.014 61.956306,61.956306 0 0 1 -0.34055,0.0124 61.956306,61.956306 0 0 1 -0.34054,0.0103 61.956306,61.956306 0 0 1 -0.34055,0.009 61.956306,61.956306 0 0 1 -0.34003,0.007 61.956306,61.956306 0 0 1 -0.34055,0.005 61.956306,61.956306 0 0 1 -0.34003,0.003 61.956306,61.956306 0 0 1 -0.34055,10e-4 61.956306,61.956306 0 0 1 -0.34055,-10e-4 61.956306,61.956306 0 0 1 -0.34054,-0.003 61.956306,61.956306 0 0 1 -0.34055,-0.004 61.956306,61.956306 0 0 1 -0.34055,-0.006 61.956306,61.956306 0 0 1 -0.34003,-0.008 61.956306,61.956306 0 0 1 -0.34003,-0.0103 61.956306,61.956306 0 0 1 -0.34055,-0.0119 61.956306,61.956306 0 0 1 -0.34055,-0.0144 61.956306,61.956306 0 0 1 -0.33951,-0.015 61.956306,61.956306 0 0 1 -0.34003,-0.0176 61.956306,61.956306 0 0 1 -0.34055,-0.0191 61.956306,61.956306 0 0 1 -0.339,-0.0212 61.956306,61.956306 0 0 1 -0.34003,-0.0228 61.956306,61.956306 0 0 1 -0.34003,-0.0253 61.956306,61.956306 0 0 1 -0.339,-0.0269 61.956306,61.956306 0 0 1 -0.33899,-0.0289 61.956306,61.956306 0 0 1 -0.339,-0.0305 61.956306,61.956306 0 0 1 -0.339,-0.0325 61.956306,61.956306 0 0 1 -0.339,-0.0341 61.956306,61.956306 0 0 1 -0.33848,-0.0362 61.956306,61.956306 0 0 1 -0.33848,-0.0383 61.956306,61.956306 0 0 1 -0.33796,-0.0398 61.956306,61.956306 0 0 1 -0.33796,-0.0419 61.956306,61.956306 0 0 1 -0.33745,-0.0434 61.956306,61.956306 0 0 1 -0.33745,-0.0455 61.956306,61.956306 0 0 1 -0.33744,-0.0476 61.956306,61.956306 0 0 1 -0.33642,-0.0491 61.956306,61.956306 0 0 1 -0.33693,-0.0506 61.956306,61.956306 0 0 1 -0.33641,-0.0532 61.956306,61.956306 0 0 1 -0.3359,-0.0543 61.956306,61.956306 0 0 1 -0.3359,-0.0568 61.956306,61.956306 0 0 1 -0.33538,-0.0584 61.956306,61.956306 0 0 1 -0.33486,-0.0604 61.956306,61.956306 0 0 1 -0.33486,-0.0615 61.956306,61.956306 0 0 1 -0.33435,-0.0646 61.956306,61.956306 0 0 1 -0.33383,-0.0656 61.956306,61.956306 0 0 1 -0.33383,-0.0672 61.956306,61.956306 0 0 1 -0.33331,-0.0697 61.956306,61.956306 0 0 1 -0.33332,-0.0713 61.956306,61.956306 0 0 1 -0.33227,-0.0728 61.956306,61.956306 0 0 1 -0.33177,-0.075 61.956306,61.956306 0 0 1 -0.33228,-0.077 61.956306,61.956306 0 0 1 -0.33124,-0.0785 61.956306,61.956306 0 0 1 -0.33073,-0.0801 61.956306,61.956306 0 0 1 -0.33021,-0.0827 61.956306,61.956306 0 0 1 -0.33022,-0.0837 61.956306,61.956306 0 0 1 -0.32917,-0.0858 61.956306,61.956306 0 0 1 -0.32918,-0.0878 61.956306,61.956306 0 0 1 -0.32815,-0.0894 61.956306,61.956306 0 0 1 -0.32814,-0.0915 61.956306,61.956306 0 0 1 -0.32763,-0.0925 61.956306,61.956306 0 0 1 -0.3266,-0.0956 61.956306,61.956306 0 0 1 -0.32711,-0.0961 61.956306,61.956306 0 0 1 -0.32608,-0.0987 61.956306,61.956306 0 0 1 -0.32504,-0.0997 61.956306,61.956306 0 0 1 -0.32453,-0.10234 61.956306,61.956306 0 0 1 -0.0909,-0.0294 61.956306,61.956306 0 0 0 58.54113,14.24874 68.446631,68.446631 0 0 1 -1.94511,-16.20107 68.446631,68.446631 0 0 1 0.51419,-8.3752 z" />
      <path
         id="rect1115-1"
         style="fill:#ffdca5;fill-opacity:1;stroke-width:2.07791;stroke-linecap:round;stroke-linejoin:round;stroke-dasharray:4.15581, 2.07791;stroke-dashoffset:2.07791;paint-order:stroke fill markers"
         inkscape:transform-center-x="15.041563"
         inkscape:transform-center-y="64.185461"
         d="m 98.330466,154.72426 -14.24874,61.22003 c -1.31772,5.66161 2.227,11.04916 7.94784,12.0799 l 2.57762,0.46455 c 5.720824,1.03074 11.387454,-2.69756 12.705164,-8.35916 l 9.38599,-40.32571 A 68.446631,68.446631 0 0 1 98.330466,154.72426 Z" />
    </g>
  </g>
</svg>
